<svg width="135" height="37" viewBox="0 0 135 37" xmlns="http://www.w3.org/2000/svg" xmlns:xlink="http://www.w3.org/1999/xlink">
    <defs>
        <path id="az3uj8gawa" d="M0 37h135V0H0z"/>
    </defs>
    <g fill="none" fill-rule="evenodd">
        <path fill="#18193B" d="M12 29h20V10z"/>
        <path fill="#249ECC" d="M29 8H9v19z"/>
        <g>
            <path d="M46.426 24.958c.739 0 1.363-.261 1.871-.783.508-.521.762-1.157.762-1.908 0-.75-.254-1.387-.762-1.908a2.511 2.511 0 0 0-1.871-.783h-5.129v5.382h5.129zm-.316-13.454h-4.813v5.382h4.813c.748 0 1.378-.259 1.89-.775.512-.517.768-1.156.768-1.916s-.256-1.399-.768-1.916c-.512-.516-1.142-.775-1.89-.775zm3.44 6.636c.856.443 1.527 1.052 2.012 1.827.484.775.726 1.67.726 2.684 0 1.587-.568 2.906-1.705 3.958-1.136 1.052-2.524 1.577-4.163 1.577h-8.383V8.814h7.768c1.602 0 2.958.512 4.066 1.536 1.108 1.024 1.663 2.301 1.663 3.833 0 1.679-.662 2.998-1.984 3.957z" fill="#18193B"/>
            <mask id="zflesrrjdb" fill="#fff">
                <use xlink:href="#az3uj8gawa"/>
            </mask>
            <path fill="#18193B" mask="url(#zflesrrjdb)" d="M54.88 28.186h3.26V7.737h-3.26zM71.18 14.195h3.26v13.991h-3.26v-1.79c-.92 1.436-2.377 2.154-4.368 2.154-1.616 0-2.922-.513-3.918-1.539-.996-1.026-1.493-2.434-1.493-4.225v-8.591h3.26v8.274c0 1.044.272 1.845.818 2.404.546.56 1.291.839 2.237.839 1.037 0 1.873-.33 2.51-.993.636-.66.955-1.672.955-3.033v-7.491zM80.117 20.114h8.298c-.207-1.136-.682-1.993-1.425-2.571-.744-.578-1.614-.867-2.611-.867-1.129 0-2.07.308-2.822.923-.753.615-1.233 1.453-1.44 2.515zm.029 2.153c.225 1.062.743 1.878 1.552 2.446.809.569 1.796.852 2.963.852 1.618 0 2.832-.577 3.64-1.733l2.513 1.454c-1.393 2.031-3.453 3.047-6.181 3.047-2.296 0-4.149-.694-5.56-2.083-1.411-1.388-2.117-3.144-2.117-5.269 0-2.087.696-3.834 2.089-5.241 1.392-1.407 3.18-2.11 5.362-2.11 2.07 0 3.768.717 5.094 2.152 1.327 1.435 1.99 3.177 1.99 5.227a9.3 9.3 0 0 1-.113 1.258H80.146zM105.41 14.195v13.991h-3.26v-11.3h-4.346v11.3h-3.26v-11.3H92.37v-2.691h2.173v-.28c0-3.782 2.186-5.674 6.559-5.674 1.025 0 2.099.121 3.22.363v2.729a21.405 21.405 0 0 0-3.16-.226c-1.138 0-1.983.207-2.533.62-.551.415-.826 1.138-.826 2.172v.296h7.606zM116.3 13.831c1.615 0 2.92.513 3.917 1.54.995 1.025 1.493 2.434 1.493 4.225v8.59h-2.716v-8.274c0-1.043-.273-1.845-.818-2.404-.546-.559-1.292-.838-2.238-.838-1.036 0-1.873.33-2.51.992-.636.662-.954 1.673-.954 3.033v7.492h-3.26V14.195h2.717v1.79c.92-1.435 2.376-2.154 4.368-2.154M125.514 8.835c-1.8 0-3.26 1.445-3.26 3.228 0 1.784 1.46 3.23 3.26 3.23 1.8 0 3.26-1.446 3.26-3.23 0-1.783-1.46-3.228-3.26-3.228m0 .538c1.498 0 2.717 1.207 2.717 2.69 0 1.484-1.22 2.691-2.717 2.691-1.498 0-2.717-1.207-2.717-2.69 0-1.484 1.219-2.691 2.717-2.691"/>
            <path d="M124.97 10.966v1.076h.933c.173 0 .32-.052.44-.156a.486.486 0 0 0 .182-.382c0-.15-.06-.277-.181-.381a.652.652 0 0 0-.441-.157h-.933zm1.51 2.69-.786-1.076h-.724v1.077h-.543v-3.23h1.45c.723 0 1.267.54 1.267 1.077 0 .538-.624.821-.843.898l.843 1.255h-.665z" fill="#18193B" mask="url(#zflesrrjdb)"/>
        </g>
    </g>
</svg>
