<svg width="39" height="26" viewBox="0 0 39 26" xmlns="http://www.w3.org/2000/svg">
    <path d="M36.745 0A2.26 2.26 0 0 1 39 2.27v21.46A2.26 2.26 0 0 1 36.745 26H2.255A2.26 2.26 0 0 1 0 23.73V2.27A2.26 2.26 0 0 1 2.255 0h34.49zm1.094 1.264H1.161v23.472h36.678V1.264zM7.12 19.42c.342 0 .62.323.62.722 0 .399-.278.722-.62.722H5.881c-.342 0-.62-.323-.62-.722 0-.399.278-.722.62-.722h1.238zm3.095 0c.343 0 .62.323.62.722 0 .399-.277.722-.62.722H8.976c-.342 0-.619-.323-.619-.722 0-.399.277-.722.62-.722h1.237zm3.096 0c.342 0 .619.323.619.722 0 .399-.277.722-.62.722h-1.238c-.342 0-.619-.323-.619-.722 0-.399.277-.722.62-.722h1.238zm4.178 0c.342 0 .62.323.62.722 0 .399-.278.722-.62.722H16.25c-.342 0-.619-.323-.619-.722 0-.399.277-.722.619-.722h1.238zm3.095 0c.343 0 .62.323.62.722 0 .399-.277.722-.62.722h-1.238c-.342 0-.619-.323-.619-.722 0-.399.277-.722.62-.722h1.237zm3.096 0c.342 0 .619.323.619.722 0 .399-.277.722-.62.722H22.44c-.342 0-.619-.323-.619-.722 0-.399.277-.722.62-.722h1.238zm3.56 0c.341 0 .618.323.618.722 0 .399-.277.722-.619.722H26c-.342 0-.619-.323-.619-.722 0-.399.277-.722.619-.722h1.238zm3.094 0c.343 0 .62.323.62.722 0 .399-.277.722-.62.722h-1.238c-.342 0-.619-.323-.619-.722 0-.399.277-.722.62-.722h1.237zm3.096 0c.342 0 .619.323.619.722 0 .399-.277.722-.62.722H32.19c-.342 0-.619-.323-.619-.722 0-.399.277-.722.62-.722h1.238zM12.459 7.062a.999.999 0 0 1 1.005 1.003v4.413c0 .554-.447 1.003-1.004 1.003h-4.8a.999.999 0 0 1-1.005-1.003V8.065c0-.554.447-1.003 1.005-1.003h4.8z" fill="#00A9E0" fill-rule="evenodd"/>
</svg>
