<svg width="42" height="26" viewBox="0 0 42 26" xmlns="http://www.w3.org/2000/svg" xmlns:xlink="http://www.w3.org/1999/xlink">
    <defs>
        <path id="6nvhcmbxra" d="M0 0h40.865v26H0z"/>
    </defs>
    <g transform="translate(1.135)" fill="none" fill-rule="evenodd">
        <mask id="gy0bjzr16b" fill="#fff">
            <use xlink:href="#6nvhcmbxra"/>
        </mask>
        <path d="M40.53 12.169 30.737.595a1.173 1.173 0 0 0-1.006-.572c-.65 0-1.176.532-1.176 1.19 0 .346.146.658.38.876l8.87 10.878-8.772 10.672h-3.789l8.29-9.758.015-.018h.002c.23-.256.333-.556.328-.852a1.228 1.228 0 0 0-.328-.852h-.002l-.016-.018L23.636.614 23.63.606a1.173 1.173 0 0 0-1.012-.583h-6.951c-.65 0-1.177.532-1.177 1.19 0 .2.027.407.135.553l9.212 11.29-7.851 9.53c-.047.047-.724 1.022-1.913 1.022H4.694a2.32 2.32 0 0 1-2.333-2.344V4.744c0-1.164 1.058-2.36 2.362-2.36h5.834c.688 0 1.177-.475 1.177-1.171 0-.696-.49-1.213-1.177-1.213L4.666.024C1.875.024 0 2.352 0 4.719v16.545c0 2.549 2.221 4.72 4.666 4.72h9.375a4.66 4.66 0 0 0 1.459-.233c1.292-.424 2.072-1.294 2.223-1.479l8.837-10.419c.418-.48.473-1.175.007-1.694h-.002l-.015-.018-8.359-9.757h3.859l8.735 10.627-9.192 11.218c-.003.003.002.013.015.028a1.196 1.196 0 0 0-.134.553c0 .657.527 1.19 1.176 1.19h6.952a1.174 1.174 0 0 0 1.019-.591l9.898-11.528.015-.018h.002c.467-.519.411-1.214-.007-1.694" fill="#000" fill-rule="nonzero" mask="url(#gy0bjzr16b)"/>
    </g>
</svg>
