<svg width="46" height="25" viewBox="0 0 46 25" xmlns="http://www.w3.org/2000/svg">
    <g fill-rule="nonzero" fill="none">
        <path d="M33.646.5H12.783C6.263.5.929 5.9.929 12.5s5.334 12 11.854 12h20.863c6.52 0 11.854-5.4 11.854-12S40.166.5 33.646.5z" fill="#FFF"/>
        <path d="M33.646 1.472c1.464 0 2.886.294 4.226.87A11.065 11.065 0 0 1 44.54 12.5c0 1.482-.29 2.922-.86 4.278a11.133 11.133 0 0 1-2.34 3.51 10.916 10.916 0 0 1-3.468 2.37c-1.34.576-2.762.87-4.226.87H12.783c-1.464 0-2.887-.294-4.226-.87A11.065 11.065 0 0 1 1.889 12.5c0-1.482.29-2.922.86-4.278a11.133 11.133 0 0 1 2.34-3.51 10.916 10.916 0 0 1 3.468-2.37c1.34-.576 2.762-.87 4.226-.87h20.863m0-.972H12.783C6.263.5.929 5.9.929 12.5s5.334 12 11.854 12h20.863c6.52 0 11.854-5.4 11.854-12S40.166.5 33.646.5z" fill="#3C4043"/>
        <g fill="#3C4043">
            <path d="M22.188 13.471v3.707h-1.133V8.025h3.003c.761 0 1.41.263 1.941.79.543.527.814 1.17.814 1.93 0 .778-.271 1.421-.814 1.942-.525.52-1.174.778-1.941.778h-1.87v.006zm0-4.319v3.192h1.894c.448 0 .826-.16 1.12-.472.301-.312.455-.692.455-1.12 0-.424-.154-.797-.454-1.11a1.443 1.443 0 0 0-1.121-.484h-1.894v-.006zM29.775 10.708c.838 0 1.499.233 1.983.699.483.465.725 1.102.725 1.911v3.86h-1.08v-.87h-.047c-.466.717-1.091 1.072-1.87 1.072-.667 0-1.221-.202-1.67-.613a1.989 1.989 0 0 1-.672-1.531c0-.65.236-1.164.708-1.544.472-.386 1.103-.576 1.888-.576.672 0 1.227.129 1.658.386v-.27c0-.41-.154-.753-.466-1.041a1.566 1.566 0 0 0-1.098-.429c-.631 0-1.133.276-1.498.833l-.998-.65c.55-.826 1.363-1.237 2.437-1.237zm-1.463 4.546a.94.94 0 0 0 .378.766c.247.202.542.306.879.306.478 0 .902-.184 1.274-.551.372-.368.56-.797.56-1.293-.353-.288-.843-.435-1.474-.435-.46 0-.844.117-1.151.343-.313.24-.466.527-.466.864zM38.643 10.91l-3.776 9.019h-1.168l1.404-3.156-2.49-5.863h1.233l1.794 4.497h.023l1.747-4.497z"/>
        </g>
        <path d="M17.682 12.724c0-.384-.033-.75-.095-1.103H12.84v2.021h2.735a2.442 2.442 0 0 1-1.015 1.63v1.31h1.628c.95-.913 1.495-2.263 1.495-3.858z" fill="#4285F4"/>
        <path d="M14.56 15.271c-.454.318-1.037.503-1.72.503-1.318 0-2.437-.922-2.838-2.166H8.323v1.353c.832 1.714 2.542 2.89 4.517 2.89 1.366 0 2.512-.466 3.347-1.269l-1.627-1.31z" fill="#34A853"/>
        <path d="M9.844 12.604c0-.349.056-.686.158-1.004v-1.352H8.323a5.385 5.385 0 0 0-.537 2.356c0 .848.194 1.648.537 2.357l1.68-1.352a3.275 3.275 0 0 1-.159-1.005z" fill="#FABB05"/>
        <path d="M12.84 9.434c.745 0 1.413.267 1.94.787l1.442-1.496a4.76 4.76 0 0 0-3.382-1.368c-1.974 0-3.685 1.176-4.517 2.89l1.68 1.353c.4-1.243 1.519-2.166 2.837-2.166z" fill="#E94235"/>
    </g>
</svg>
